<svg xmlns="http://www.w3.org/2000/svg" xmlns:xlink="http://www.w3.org/1999/xlink" xmlns:inkscape="http://www.inkscape.org/namespaces/inkscape" version="1.1" width="841.89" height="595.276" viewBox="0 0 841.89 595.276">
<defs>
<clipPath id="clip_1">
<path transform="matrix(1,0,0,-1,0,595.276)" d="M0 595.276H841.89V0H0Z"/>
</clipPath>
</defs>
<g inkscape:groupmode="layer" inkscape:label="Layer 1">
<g clip-path="url(#clip_1)">
<path transform="matrix(1,0,0,-1,364.2465,154.49622)" d="M0 0C1.301 1.529 3.618 2.046 6.95 1.551 10.28 1.051 12.023 .075 12.176-1.38 9.265-10.264 5.207-18.19 0-25.158-5.209-32.129-11.221-36.838-18.037-39.288-13.748-41.204-10.914-45.606-9.536-52.498-9.231-53.954-8.808-56.214-8.272-59.277-7.738-62.34-7.238-64.83-6.779-66.744-6.32-68.657-5.649-70.783-4.767-73.119-3.889-75.456-2.721-77.35-1.264-78.805 .19-80.259 1.952-81.293 4.02-81.906 5.169-83.055 4.938-84.873 3.33-87.363 1.722-89.851-.423-90.981-3.103-90.752-5.555-90.368-7.697-89.469-9.536-88.053-11.373-86.635-12.808-85.084-13.842-83.399-14.878-81.714-15.815-79.494-16.657-76.737-17.501-73.98-18.075-71.607-18.381-69.614-18.688-67.624-19.07-65.097-19.53-62.032-19.989-58.971-20.333-56.748-20.563-55.371-21.941-47.558-25.313-43.654-30.672-43.654-31.898-48.173-32.951-51.81-33.831-54.565-34.713-57.323-35.766-60.195-36.99-63.181-38.216-66.169-39.461-68.506-40.723-70.189-41.988-71.874-43.5-73.446-45.262-74.898-47.024-76.355-49.014-77.388-51.236-78.001-53.457-78.612-56.022-78.92-58.931-78.92-63.527-78.92-67.357-77.771-70.419-75.473-73.482-73.177-75.379-70.477-76.105-67.374-76.833-64.273-76.507-61.039-75.129-57.669-73.749-54.298-71.378-51.656-68.006-49.741-66.705-49.207-65.155-49.55-63.354-50.774-61.556-52-60.77-53.341-60.999-54.796-62.837-57.094-63.91-59.488-64.215-61.977-64.522-64.465-64.044-66.532-62.78-68.179-61.515-69.826-59.698-70.648-57.323-70.648-54.565-70.573-52.346-68.982-50.661-65.881-48.976-62.78-47.214-58.128-45.377-51.923-43.692-46.105-41.624-38.79-39.173-29.982-36.723-21.176-34.848-14.743-33.545-10.683-35.612-12.906-38.139-14.839-41.125-16.486-44.113-18.133-46.755-19.376-49.053-20.219-51.349-21.063-53.457-22.191-55.371-23.607-57.286-25.025-58.472-26.691-58.931-28.605-60.005-32.97-58.626-35.537-54.796-36.302-54.262-36.456-53.954-37.048-53.878-38.081-53.801-39.115-54.031-40.132-54.565-41.127-55.103-42.122-55.87-42.697-56.864-42.848-61.996-43.004-65.958-41.471-68.754-38.254-71.549-35.038-72.448-31.4-71.453-27.34-70.763-24.354-69.29-21.905-67.03-19.989-64.772-18.075-62.09-16.563-58.989-15.452-55.887-14.342-52.671-13.27-49.339-12.236-46.007-11.2-42.562-9.69-39-7.697-35.439-5.707-32.473-3.257-30.098-.346-29.487 .803-28.126 1.51-26.02 1.779-23.914 2.046-21.924 1.912-20.047 1.378-18.171 .842-17.232 .075-17.232-.92-20.143-9.19-23.628-20.296-27.686-34.233-25.542-33.545-23.474-32.588-21.482-31.362-19.491-30.138-17.768-28.912-16.313-27.686-14.859-26.462-13.423-24.929-12.005-23.09-10.589-21.253-9.44-19.645-8.558-18.265-7.68-16.888-6.721-15.164-5.687-13.097-4.654-11.029-3.906-9.44-3.447-8.329-2.988-7.221-2.356-5.687-1.551-3.733-.747-1.781-.231-.538 0 0" fill="#ffffff"/>
<path transform="matrix(1,0,0,-1,397.5607,191.48612)" d="M0 0C-3.217-.156-6.185-2.108-8.904-5.858-11.623-9.613-13.441-13.785-14.359-18.381-16.352-28.643-14.551-33.773-8.962-33.773-6.051-33.773-3.447-32.434-1.149-29.754-2.223-28.069-2.24-26.405-1.207-24.756-.173-23.109 1.186-22.479 2.871-22.861 4.02-20.104 4.9-17.385 5.513-14.705 6.126-12.024 6.412-9.555 6.375-7.296 6.335-5.036 5.782-3.238 4.709-1.896 3.635-.557 2.067 .075 0 0M1.493 8.157C6.393 8.232 10.299 7.082 13.21 4.71 16.119 2.335 17.881-.69 18.494-4.366 19.107-8.041 18.915-12.082 17.919-16.484 16.924-20.89 15.201-25.121 12.751-29.179 20.025-29.946 25.769-25.35 29.982-15.393 30.286-15.01 30.786-14.897 31.475-15.049 32.165-15.203 32.815-15.566 33.428-16.14 34.04-16.715 34.233-17.232 34.002-17.691 27.951-30.864 19.412-36.3 8.385-34.004 2.948-39.288-3.447-41.93-10.799-41.93-17.003-41.93-21.751-40.016-25.044-36.187-28.336-32.357-29.179-26.383-27.571-18.265-25.963-10.455-22.441-4.137-17.003 .688-11.565 5.513-5.399 8.001 1.493 8.157" fill="#ffffff"/>
<path transform="matrix(1,0,0,-1,449.2517,242.71979)" d="M0 0C-6.279-2.68-10.263-5.782-11.948-9.306-13.25-12.063-13.02-13.9-11.258-14.82-9.496-15.814-7.544-15.203-5.399-12.981-3.945-11.373-2.796-9.344-1.952-6.894-1.647-6.051-1.264-4.769-.803-3.046-.344-1.322-.077-.306 0 0M-6.491 54.45C-2.317 57.052 1.875 58.624 6.089 59.16 10.299 59.694 14.607 59.427 19.013 58.355 23.415 57.282 27.225 55.328 30.442 52.496 30.978 51.578 30.422 50.179 28.776 48.303 27.129 46.426 25.847 45.794 24.929 46.409 20.333 50.085 15.124 51.653 9.306 51.118 5.858 50.811 2.604 49.356-.459 46.753-3.524 44.149-6.087 40.779-8.157 36.644-10.07 32.815-11.162 29.177-11.431 25.73-11.7 22.285-11.143 19.91-9.765 18.609-7.926 17.001-5.476 17.46-2.411 19.987 .649 22.514 3.522 26.495 6.204 31.935 8.347 36.3 10.147 40.817 11.602 45.488 12.445 46.638 14.436 46.849 17.576 46.121 20.715 45.392 22.362 44.416 22.516 43.192 21.441 39.517 20.025 34.308 18.265 27.569 16.503 20.829 15.049 15.393 13.9 11.256 22.4 14.703 29.562 22.934 35.382 35.954 35.687 36.26 36.185 36.337 36.875 36.185 37.564 36.031 38.214 35.668 38.829 35.093 39.44 34.519 39.632 34.002 39.401 33.543 35.42 25.271 31.398 18.915 27.34 14.472 23.28 10.032 18.15 6.471 11.948 3.789 9.19-6.241 6.183-13.287 2.93-17.347-.327-21.405-5.017-23.473-11.143-23.549-15.126-23.703-18.246-22.727-20.506-20.621-22.763-18.513-23.665-15.623-23.203-11.948-22.975-9.803-22.268-7.83-21.078-6.031-19.893-4.231-18.571-2.719-17.116-1.495-15.662-.269-13.767 .938-11.431 2.125-9.094 3.313-6.988 4.25-5.111 4.938-3.236 5.628-.918 6.433 1.839 7.351 3.37 11.946 5.055 17.307 6.892 23.434 1.839 14.244-4.212 9.573-11.258 9.419-16.39 9.344-20.045 11.16-22.227 14.876-24.41 18.588-25.004 23.165-24.009 28.603-23.013 34.04-20.754 39.209-17.232 44.111-14.244 48.4-10.666 51.845-6.491 54.45" fill="#ffffff"/>
<path transform="matrix(1,0,0,-1,230.8745,249.46979)" d="M0 0C4.158 1.633 8.543 1.187 13.149-1.337 15.969-2.825 16.861-4.312 15.823-5.795 12.703-7.576 9.584-11.7 6.464-18.163 3.343-24.625 .892-30.755-.89-36.548-2.673-42.343-4.979-50.515-7.799-61.062 6.018-64.928 17.829-63.886 27.634-57.941 37.44-52.002 43.308-42.27 45.241-28.749 47.17-16.569 44.272-6.946 36.55 .111 28.822 7.167 19.017 10.92 7.132 11.365-4.456 11.661-15.08 9.394-24.737 4.569-34.396-.261-40.931-6.539-44.347-14.263-47.767-21.989-46.949-30.607-41.895-40.114-41.154-42.493-42.676-45.054-46.465-47.802-50.254-50.553-53.634-51.257-56.604-49.919-65.818-43.68-70.421-35.065-70.421-24.068-70.421-8.322-62.734 4.308-47.356 13.817-31.979 23.323-13.892 27.93 6.91 27.634 26.074 27.335 42.12 22.024 55.046 11.7 67.971 1.372 72.948-12.853 69.977-30.978 67.003-49.697 57.867-63.329 42.566-71.87 27.262-80.417 9.211-81.566-11.588-75.325-12.926-79.932-14.561-86.21-16.49-94.157-18.423-102.106-20.056-108.495-21.393-113.322-22.731-118.152-23.995-121.828-25.183-124.353-26.372-126.136-28.97-127.25-32.982-127.696-36.994-128.142-40.635-127.731-43.901-126.47-47.172-125.21-48.582-123.315-48.136-120.788-45.761-115.739-42.195-103.182-37.44-83.124-32.686-63.068-27.264-45.054-21.171-29.083-15.08-13.114-8.022-3.42 0 0" fill="#ffffff"/>
<path transform="matrix(1,0,0,-1,348.9863,282.4516)" d="M0 0C8.318 1.335 17.084 1.038 26.297-.892 35.507-2.825 43.01-6.764 48.805-12.703 49.843-14.486 48.805-17.161 45.685-20.727 42.564-24.293 40.114-25.628 38.331-24.737 28.822-17.161 18.198-14.117 6.462-15.6 .073-16.492-5.983-19.466-11.7-24.514-17.422-29.567-22.062-35.881-25.628-43.458-29.049-50.738-31.055-57.721-31.646-64.405-32.242-71.092-31.277-75.698-28.749-78.222-23.549-83.276-16.457-79.71-7.467-67.526 1.522-55.346 8.022-41.674 12.034-26.52 14.113-24.145 18.087-23.624 23.957-24.96 29.825-26.297 32.982-28.23 33.428-30.755 28.972-46.209 26.147-57.129 24.96-63.514 22.581-74.362 23.918-79.783 28.972-79.783 33.278-79.637 38.627-76.143 45.016-69.309 51.403-62.476 56.527-54.377 60.393-45.018 60.985-44.276 61.953-44.053 63.291-44.349 64.628-44.649 65.889-45.352 67.08-46.467 68.267-47.581 68.638-48.584 68.192-49.476 61.804-62.845 54.339-73.805 45.796-82.346 37.251-90.891 28.08-95.16 18.273-95.16 12.776-95.16 8.725-92.747 6.128-87.916 3.528-83.091 2.898-76.589 4.233-68.417-.669-76.885-5.795-83.61-11.143-88.585-16.492-93.565-23.253-96.125-31.423-96.274-40.191-96.421-46.987-93.342-51.814-87.027-56.641-80.713-58.089-71.615-56.16-59.727-53.782-45.018-47.06-31.946-35.991-20.504-24.925-9.065-12.926-2.229 0 0" fill="#ffffff"/>
<path transform="matrix(1,0,0,-1,388.6548,410.3724)" d="M0 0C-1.633-5.199-3.901-9.169-6.798-11.921-9.696-14.668-12.48-16.044-15.155-16.044-17.679-16.19-19.389-15.226-20.281-13.147-21.173-11.064-20.8-8.243-19.167-4.677-16.046 1.71-8.393 7.728 3.787 13.373 2.896 9.661 1.635 5.203 0 0M80.338 81.231C79.223 82.346 78.034 83.088 76.772 83.46 75.509 83.829 74.579 83.718 73.988 83.126 62.845 58.462 48.505 42.489 30.976 35.213 42.71 78.743 50.811 107.786 55.267 122.349 54.967 125.023 51.33 126.841 44.347 127.809 37.363 128.774 33.205 127.994 31.867 125.469 21.021 83.718 12.405 51.036 6.016 27.411-5.126 23.257-14.298 19.095-21.507 14.934-28.71 10.776-33.576 5.649-36.104-.446-38.925-5.641-40.337-10.618-40.337-15.375-40.337-20.129-38.331-24.18-34.321-27.523-30.309-30.862-24.885-32.457-18.052-32.311-6.164-32.161 3.046-28.265 9.582-20.613 16.121-12.958 21.985 .819 27.187 20.729 39.369 25.928 49.62 32.949 57.941 41.786 66.259 50.625 74.134 62.847 81.564 78.445 81.86 79.187 81.452 80.117 80.338 81.231" fill="#ffffff"/>
<path transform="matrix(1,0,0,-1,561.5857,327.2465)" d="M0 0C.592 .592 1.56 .703 2.898 .334 4.235-.038 5.461-.78 6.575-1.895 7.688-3.009 8.097-3.939 7.799-4.681 .815-19.092-7.096-30.53-15.935-39-24.775-47.468-33.65-51.703-42.566-51.703-51.48-51.849-57.795-47.952-61.508-40.003-65.224-32.056-67.526-20.279-68.417-4.681-75.402-11.219-80.228-17.606-82.901-23.845-83.201-25.332-83.943-28.749-85.13-34.096-86.321-39.446-87.213-43.605-87.805-46.576-88.104-48.359-90.368-49.658-94.601-50.477-98.836-51.291-102.848-51.257-106.637-50.365-110.424-49.474-111.946-47.691-111.204-45.016-97.241 12.034-83.57 60.985-70.198 101.845-69.307 104.074-65.224 104.742-57.941 103.851-50.665 103.105-46.949 101.399-46.799 98.724-46.653 98.425-46.653 98.129-46.799 97.833-59.133 60.243-68.342 30.009-74.433 7.132-60.616 25.997-45.316 39.592-28.526 47.913-26.447 49.101-24.107 48.655-21.505 46.576-18.907 44.495-17.235 42.082-16.492 39.334-15.75 36.583-16.269 34.392-18.05 32.761-29.64 25.924-39.968 17.975-49.028 8.914-49.474-3.42-48.582-13.929-46.353-22.619-44.124-31.31-40.56-35.733-35.656-35.879-30.309-36.029-24.403-33.132-17.939-27.189-11.477-21.247-5.497-12.184 0 0" fill="#ffffff"/>
<path transform="matrix(1,0,0,-1,613.0634,282.4516)" d="M0 0C8.318 1.335 17.084 1.038 26.295-.892 35.507-2.825 43.012-6.764 48.807-12.703 49.844-14.486 48.807-17.161 45.686-20.727 42.566-24.293 40.114-25.628 38.331-24.737 28.82-17.161 18.198-14.117 6.462-15.6 .073-16.492-5.983-19.466-11.7-24.514-17.422-29.567-22.062-35.881-25.628-43.458-29.049-50.738-31.055-57.721-31.646-64.405-32.242-71.092-31.277-75.698-28.749-78.222-23.549-83.276-16.457-79.71-7.467-67.526 1.522-55.346 8.022-41.674 12.034-26.52 14.113-24.145 18.087-23.624 23.955-24.96 29.823-26.297 32.982-28.23 33.428-30.755 28.97-46.209 26.145-57.129 24.958-63.514 22.579-74.362 23.916-79.783 28.97-79.783 33.278-79.637 38.623-76.143 45.018-69.309 51.405-62.476 56.531-54.377 60.397-45.018 60.989-44.276 61.95-44.053 63.287-44.349 64.624-44.649 65.885-45.352 67.076-46.467 68.267-47.581 68.636-48.584 68.19-49.476 61.804-62.845 54.341-73.805 45.794-82.346 37.251-90.891 28.078-95.16 18.271-95.16 12.776-95.16 8.725-92.747 6.128-87.916 3.528-83.091 2.898-76.589 4.233-68.417-.669-76.885-5.795-83.61-11.143-88.585-16.492-93.565-23.253-96.125-31.423-96.274-40.191-96.421-46.987-93.342-51.814-87.027-56.641-80.713-58.089-71.615-56.16-59.727-53.781-45.018-47.06-31.946-35.991-20.504-24.925-9.065-12.926-2.229 0 0" fill="#ffffff"/>
</g>
</g>
</svg>
